<?xml version="1.0" encoding="UTF-8"?>
<svg id="Layer_1" data-name="Layer 1" xmlns="http://www.w3.org/2000/svg" xmlns:xlink="http://www.w3.org/1999/xlink" viewBox="0 0 44.81 24.55">
  <defs>
    <style>
      .cls-1 {
        fill: url(#linear-gradient);
        stroke: url(#linear-gradient-2);
        stroke-width: .75px;
      }

      .cls-1, .cls-2 {
        stroke-miterlimit: 10;
      }

      .cls-2 {
        fill: #eb2400;
        stroke: url(#radial-gradient);
        stroke-width: .25px;
      }

      .cls-3 {
        font-family: AcademyEngravedLetPlain, 'Academy Engraved LET';
        font-size: 3px;
      }

      .cls-4 {
        font-family: Apple-Chancery, 'Apple Chancery';
        font-size: .75px;
      }

      .cls-5 {
        letter-spacing: -.01em;
      }
    </style>
    <linearGradient id="linear-gradient" x1="8.33" y1="17.73" x2="28.98" y2="17.73" gradientUnits="userSpaceOnUse">
      <stop offset=".27" stop-color="#fff"/>
      <stop offset=".98" stop-color="#fff"/>
      <stop offset="1" stop-color="#0d0d0d"/>
      <stop offset="1" stop-color="#000"/>
    </linearGradient>
    <linearGradient id="linear-gradient-2" x1="7.96" y1="17.73" x2="29.35" y2="17.73" gradientUnits="userSpaceOnUse">
      <stop offset="0" stop-color="#fff"/>
      <stop offset="0" stop-color="#080808"/>
      <stop offset=".19" stop-color="#000"/>
    </linearGradient>
    <radialGradient id="radial-gradient" cx="19.65" cy="8.4" fx="19.65" fy="8.4" r="7.97" gradientUnits="userSpaceOnUse">
      <stop offset="0" stop-color="#fff"/>
      <stop offset="1" stop-color="#000"/>
    </radialGradient>
  </defs>
  <text/>
  <path class="cls-1" d="M19.08,17.78c-16.1-10.2-12.96,11.25,1.76-1.3,2.45-2.09,8.36-2.54,8.13,1.44-.27,4.64-13.23,2.09-9.73-2.37"/>
  <path class="cls-2" d="M18.68,15.89l-.78-.7-4.01-5.29c-.04-.05-.04.04,0,0-.06.02-.13-.16-.17-.21l-1.32-1.62c-1.52-1.87-1.24-4.62.63-6.14.81-.66,1.78-.98,2.75-.98,1.27,0,2.53.55,3.39,1.61l.51.63-.1.12s-.06-.02,0,0l.1-.12.55-.62c1.6-1.81,4.36-1.98,6.16-.38.98.86,1.48,2.07,1.48,3.28,0,1.02-.36,2.06-1.1,2.89l-1.39,1.57s.06.02,0,0c.03.05-.13.16-.02.05l-6.09,5.91"/>
  <text/>
  <text/>
  <text></text>
  <text/>
  <text/>
  <text/>
  <text/>
  <text/>
  <text class="cls-3" transform="translate(9.54 18.52)"><tspan x="0" y="0">Aiden</tspan></text>
  <text/>
  <text/>
  <text class="cls-4" transform="translate(20.03 17.99)"><tspan x="0" y="0">Journey th</tspan><tspan class="cls-5" x="3.38" y="0">r</tspan><tspan x="3.68" y="0">ough the world</tspan></text>
  <text/>
</svg>
