<?xml version="1.0" encoding="UTF-8"?>
<svg id="Layer_1" data-name="Layer 1" xmlns="http://www.w3.org/2000/svg" xmlns:xlink="http://www.w3.org/1999/xlink" viewBox="0 0 21.15 17.35">
  <defs>
    <style>
      .cls-1 {
        fill: url(#linear-gradient);
        stroke: url(#linear-gradient-2);
        stroke-width: .75px;
      }

      .cls-1, .cls-2 {
        stroke-miterlimit: 10;
      }

      .cls-2 {
        fill: #eb2400;
        stroke: url(#radial-gradient);
        stroke-width: .25px;
      }

      .cls-3 {
        font-family: Apple-Chancery, 'Apple Chancery';
        font-size: .43px;
      }

      .cls-4 {
        font-family: AcademyEngravedLetPlain, 'Academy Engraved LET';
        font-size: 2.32px;
      }

      .cls-5 {
        letter-spacing: -.02em;
      }
    </style>
    <linearGradient id="linear-gradient" x1="1.05" y1="13.76" x2="18.68" y2="13.76" gradientUnits="userSpaceOnUse">
      <stop offset=".27" stop-color="#fff"/>
      <stop offset=".98" stop-color="#fff"/>
      <stop offset="1" stop-color="#0d0d0d"/>
      <stop offset="1" stop-color="#000"/>
    </linearGradient>
    <linearGradient id="linear-gradient-2" x1=".68" y1="13.76" x2="19.05" y2="13.76" gradientUnits="userSpaceOnUse">
      <stop offset="0" stop-color="#fff"/>
      <stop offset="0" stop-color="#080808"/>
      <stop offset=".19" stop-color="#000"/>
    </linearGradient>
    <radialGradient id="radial-gradient" cx="11.29" cy="7.17" fx="11.29" fy="7.17" r="6.69" gradientTransform="translate(-.81 -.11) scale(1.02 .93)" gradientUnits="userSpaceOnUse">
      <stop offset="0" stop-color="#fff"/>
      <stop offset="1" stop-color="#000"/>
    </radialGradient>
  </defs>
  <path class="cls-1" d="M10.23,13.8c-13.74-7.9-11.06,8.71,1.5-1.01,2.09-1.62,7.14-1.96,6.94,1.11-.23,3.59-11.3,1.62-8.31-1.83"/>
  <path class="cls-2" d="M9.89,12.33l-.67-.55-3.42-4.1s-.03.03,0,0c-.05.02-.11-.12-.15-.16l-1.13-1.25c-1.3-1.45-1.06-3.58.54-4.76.69-.51,1.52-.76,2.35-.76,1.08,0,2.16.43,2.89,1.25l.44.49-.09.09s-.05-.02,0,0l.09-.09.47-.48c1.37-1.4,3.72-1.53,5.26-.29.84.67,1.26,1.6,1.26,2.54,0,.79-.31,1.6-.94,2.24l-1.19,1.22s.05.02,0,0c.03.04-.11.12-.02.04l-5.2,4.58"/>
  <text/>
  <text class="cls-4" transform="translate(2.08 14.37) scale(1.1 1)"><tspan x="0" y="0">Aiden</tspan></text>
  <text/>
  <text class="cls-3" transform="translate(10.79 14.11) scale(1.5 1)"><tspan x="0" y="0" xml:space="preserve"> Journey th</tspan><tspan class="cls-5" x="2.04" y="0">r</tspan><tspan x="2.21" y="0">ough the world</tspan></text>
  <text/>
</svg>